HIERARCHY
ROOT joint_Root
{
	OFFSET 0.0 0.0 0.0
	CHANNELS 6 Xposition Yposition Zposition Zrotation Xrotation Yrotation 
	JOINT Hips
	{
		OFFSET -0.726466 93.3139 -2.00062
		CHANNELS 6 Xposition Yposition Zposition Zrotation Xrotation Yrotation 
		JOINT Spine
		{
			OFFSET 15.7357 0.0 0.0
			CHANNELS 6 Xposition Yposition Zposition Zrotation Xrotation Yrotation 
			JOINT Chest
			{
				OFFSET 8.98455 -0.406207 0.0
				CHANNELS 6 Xposition Yposition Zposition Zrotation Xrotation Yrotation 
				JOINT Neck
				{
					OFFSET 16.3773 0.0 0.0
					CHANNELS 6 Xposition Yposition Zposition Zrotation Xrotation Yrotation 
					JOINT Head
					{
						OFFSET 6.45672 0.0 0.0
						CHANNELS 6 Xposition Yposition Zposition Zrotation Xrotation Yrotation 
						End Site
						{
							OFFSET 0.0 0.0 0.0
						}
					}
				}
				JOINT Shoulder_L
				{
					OFFSET 12.9942 -0.242716 4.98039
					CHANNELS 6 Xposition Yposition Zposition Zrotation Xrotation Yrotation 
					JOINT UpperArm_L
					{
						OFFSET 5.34809 0.0 0.0
						CHANNELS 6 Xposition Yposition Zposition Zrotation Xrotation Yrotation 
						JOINT LowerArm_L
						{
							OFFSET 24.3286 1.87007e-05 0.0
							CHANNELS 6 Xposition Yposition Zposition Zrotation Xrotation Yrotation 
							JOINT Hand_L
							{
								OFFSET 22.2916 0.0 0.0
								CHANNELS 6 Xposition Yposition Zposition Zrotation Xrotation Yrotation 
								End Site
								{
									OFFSET 0.0 0.0 0.0
								}
							}
						}
					}
				}
				JOINT Shoulder_R
				{
					OFFSET 12.9945 -0.242716 -4.98039
					CHANNELS 6 Xposition Yposition Zposition Zrotation Xrotation Yrotation 
					JOINT UpperArm_R
					{
						OFFSET -5.34813 0.0 0.0
						CHANNELS 6 Xposition Yposition Zposition Zrotation Xrotation Yrotation 
						JOINT LowerArm_R
						{
							OFFSET -24.3289 0.000322201 0.0
							CHANNELS 6 Xposition Yposition Zposition Zrotation Xrotation Yrotation 
							JOINT Hand_R
							{
								OFFSET -22.2915 -0.000108084 0.0
								CHANNELS 6 Xposition Yposition Zposition Zrotation Xrotation Yrotation 
								End Site
								{
									OFFSET 0.0 0.0 0.0
								}
							}
						}
					}
				}
			}
		}
		JOINT UpperLeg_L
		{
			OFFSET -2.19248 -6.46944 0.0
			CHANNELS 6 Xposition Yposition Zposition Zrotation Xrotation Yrotation 
			JOINT LowerLeg_L
			{
				OFFSET 39.0811 0.0 -1.23785e-05
				CHANNELS 6 Xposition Yposition Zposition Zrotation Xrotation Yrotation 
				JOINT Foot_L
				{
					OFFSET 40.9854 0.0 -1.26872e-05
					CHANNELS 6 Xposition Yposition Zposition Zrotation Xrotation Yrotation 
					JOINT Toes_L
					{
						OFFSET 11.7543 0.0 0.0
						CHANNELS 6 Xposition Yposition Zposition Zrotation Xrotation Yrotation 
						End Site
						{
							OFFSET 0.0 0.0 0.0
						}
					}
				}
			}
		}
		JOINT UpperLeg_R
		{
			OFFSET -2.19251 6.46944 0.0
			CHANNELS 6 Xposition Yposition Zposition Zrotation Xrotation Yrotation 
			JOINT LowerLeg_R
			{
				OFFSET -39.0811 -0.00228153 -0.0401928
				CHANNELS 6 Xposition Yposition Zposition Zrotation Xrotation Yrotation 
				JOINT Foot_R
				{
					OFFSET -40.9854 0.0 0.0
					CHANNELS 6 Xposition Yposition Zposition Zrotation Xrotation Yrotation 
					JOINT Toes_R
					{
						OFFSET -11.7543 0.0 0.0
						CHANNELS 6 Xposition Yposition Zposition Zrotation Xrotation Yrotation 
						End Site
						{
							OFFSET 0.0 0.0 0.0
						}
					}
				}
			}
		}
	}
}
MOTION
Frames:	4
Frame Time:	0.0333333
0.000000 0.000000 0.000000 0.000000 0.000000 -0.000000 0.055168 92.253000 0.963934 88.071400 -1.176380 1.693640 15.735700 0.000005 -0.000001 80.098900 85.241000 -79.415200 8.984550 -0.406207 -0.000000 1.621190 -1.672340 1.389940 16.377300 -0.000001 -0.000001 1.537650 -1.736260 1.929970 6.456720 -0.000001 -0.000000 -0.310513 0.119313 0.163656 12.994200 -0.242716 4.980390 -90.126200 0.349118 -70.120400 5.348090 -0.000007 -0.000001 -67.950500 34.408400 -13.282200 24.328600 0.000019 0.000005 4.474570 10.774500 -22.715200 22.291600 -0.000001 0.000005 9.161490 5.586140 -10.544900 12.994500 -0.242716 -4.980390 90.398400 -1.049720 -69.214800 -5.348130 -0.000001 -0.000004 -45.979300 65.777000 -1.221870 -24.328900 0.000322 -0.000009 19.620300 0.862380 -87.578600 -22.291500 -0.000108 -0.000004 2.322110 5.652320 -15.177400 -2.192480 -6.469440 -0.000000 -170.922000 -19.077800 -4.888870 39.081100 -0.000007 -0.000012 -0.160586 0.401737 21.788200 40.985400 -0.000006 -0.000013 -5.808210 -1.847430 -63.262800 11.754300 -0.000000 0.000003 -0.000205 -0.001893 -16.648900 -2.192510 6.469440 -0.000001 173.775000 21.334200 178.594000 -39.081100 -0.002282 -0.040193 -0.017506 0.067139 17.238700 -40.985400 0.000008 0.000006 -3.840740 2.968720 -61.754300 -11.754300 -0.000006 -0.000006 -0.001467 -0.021836 -17.461000
0.000000 0.000000 0.000000 0.000000 0.000000 -0.000000 -0.142067 92.260800 0.845971 87.983100 -1.429000 1.798970 15.735700 0.000005 -0.000001 80.194200 85.148200 -79.315400 8.984550 -0.406207 -0.000000 1.810240 -1.697280 1.782930 16.377300 -0.000001 -0.000001 1.243160 -1.645020 2.227820 6.456720 -0.000001 -0.000000 -0.610608 0.477054 0.412459 12.994200 -0.242716 4.980390 -90.169900 0.474510 -70.301600 5.348090 -0.000007 -0.000001 -65.194200 34.098300 -15.269200 24.328600 0.000019 0.000005 5.489950 13.394300 -22.534600 22.291600 -0.000001 0.000005 7.443740 5.579990 -10.208900 12.994500 -0.242716 -4.980390 90.706000 -1.900090 -69.610200 -5.348130 -0.000001 -0.000004 -47.618400 69.423300 1.560290 -24.328900 0.000322 -0.000009 22.598000 -0.370693 -90.888600 -22.291500 -0.000108 -0.000004 6.613730 5.667620 -16.840600 -2.192480 -6.469440 -0.000000 -170.641000 -19.277800 -4.741770 39.081100 -0.000007 -0.000012 -0.161660 0.406346 21.694700 40.985400 -0.000006 -0.000013 -5.933240 -1.851540 -63.119000 11.754300 -0.000000 0.000003 -0.000177 -0.001670 -16.640800 -2.192510 6.469440 -0.000001 174.008000 21.210400 178.527000 -39.081100 -0.002282 -0.040193 -0.018573 0.070105 17.347200 -40.985400 0.000008 0.000006 -3.707860 3.035610 -61.759900 -11.754300 -0.000006 -0.000006 -0.001501 -0.022282 -17.479200
0.000000 0.000000 0.000000 0.000000 0.000000 -0.000000 -0.426781 92.255700 0.715534 87.830200 -1.541050 2.244950 15.735700 0.000005 -0.000001 80.502300 84.928500 -79.391500 8.984550 -0.406207 -0.000000 2.256570 -1.725840 2.253530 16.377300 -0.000001 -0.000001 1.012260 -1.512260 2.407460 6.456720 -0.000001 -0.000000 -1.078320 0.639804 0.826254 12.994200 -0.242716 4.980390 -90.137000 0.383592 -70.353700 5.348090 -0.000007 -0.000001 -61.567600 32.087600 -18.173200 24.328600 0.000019 0.000005 5.973710 14.891100 -22.155500 22.291600 -0.000001 0.000005 6.369400 5.574850 -9.937010 12.994500 -0.242716 -4.980390 90.949900 -2.617820 -70.047500 -5.348130 -0.000001 -0.000004 -52.156500 72.107900 5.825320 -24.328900 0.000322 -0.000009 23.240300 -1.260510 -92.933200 -22.291500 -0.000108 -0.000004 10.796900 5.665530 -16.886000 -2.192480 -6.469440 -0.000000 -170.151000 -19.212300 -4.344180 39.081100 -0.000007 -0.000012 -0.162096 0.407095 21.711500 40.985400 -0.000006 -0.000013 -6.108980 -1.890320 -62.994900 11.754300 -0.000000 0.000003 -0.000200 -0.001854 -16.647500 -2.192510 6.469440 -0.000001 174.194000 21.230100 178.838000 -39.081100 -0.002282 -0.040193 -0.022423 0.081641 17.504900 -40.985400 0.000008 0.000006 -3.599640 3.173240 -61.816400 -11.754300 -0.000006 -0.000006 -0.001674 -0.024560 -17.571800
0.000000 0.000000 0.000000 0.000000 0.000000 -0.000000 -0.820319 92.267100 0.598930 87.605300 -1.273020 2.530460 15.735700 0.000005 -0.000001 80.235500 84.757500 -78.802000 8.984550 -0.406207 -0.000000 2.592910 -1.841420 2.905870 16.377300 -0.000001 -0.000001 0.735657 -1.481970 2.414880 6.456720 -0.000001 -0.000000 -1.467020 0.710686 1.155180 12.994200 -0.242716 4.980390 -90.046800 0.131833 -70.451900 5.348090 -0.000007 -0.000001 -58.177700 27.273800 -21.088500 24.328600 0.000019 0.000005 5.756330 14.549900 -21.863500 22.291600 -0.000001 0.000005 6.074480 5.569150 -9.644960 12.994500 -0.242716 -4.980390 91.076100 -3.016570 -70.356900 -5.348130 -0.000001 -0.000004 -58.196600 72.420900 11.128200 -24.328900 0.000322 -0.000009 24.990600 -1.349670 -92.894800 -22.291500 -0.000108 -0.000004 15.890600 5.668590 -16.898200 -2.192480 -6.469440 -0.000000 -169.594000 -18.843400 -4.126340 39.081100 -0.000007 -0.000012 -0.163811 0.414256 21.575700 40.985400 -0.000006 -0.000013 -6.355720 -1.908540 -62.740500 11.754300 -0.000000 0.000003 -0.000196 -0.001820 -16.646300 -2.192510 6.469440 -0.000001 174.547000 21.810800 179.133000 -39.081100 -0.002282 -0.040193 -0.023362 0.084487 17.530300 -40.985400 0.000008 0.000006 -3.291380 3.398230 -61.874100 -11.754300 -0.000006 -0.000006 -0.001471 -0.021892 -17.463300
